<svg width="545" height="75" viewBox="0 0 545 75" fill="none" xmlns="http://www.w3.org/2000/svg">
<path d="M453.391 21.0638L443.428 15.3123L423.87 4.01357L443.428 -7.2851L453.391 -13.023L482.912 4.01357L456.785 19.1012L453.391 21.0638ZM422.835 38.7001L393.064 55.364V21.5587L403.263 15.9256L422.835 4.61326V38.7001ZM302.352 38.4956L272.504 55.7367V21.6635L292.416 10.174L302.366 4.42245L332.227 21.6635V55.7367L302.543 38.6047L302.352 38.4956ZM483.921 -30.6593L513.442 -47.7095V-13.6363L483.921 3.41389V-30.6593ZM272.149 21.132L242.628 4.08172L272.149 -12.9549L301.67 4.08172L292.13 9.53343L272.149 21.132ZM151.68 55.8048V21.7316L181.201 4.69503V38.7682L151.68 55.8048ZM332.214 -13.5546L302.366 3.61833L274.098 -12.7368L272.504 -13.6636V-48.1457L302.366 -65.3867L332.227 -48.1457L332.214 -13.5546ZM181.883 -30.5912L211.404 -47.6414V-13.5682L181.883 3.48203V-30.5912ZM212.085 -13.5546V-47.6277L236.931 -33.2761L241.606 -30.5503V3.52291L215.561 -11.4693L212.085 -13.5546ZM181.378 -31.1363L181.215 -31.0409V3.44114L155.169 -11.5511L151.694 -13.5682V-48.0503L181.596 -65.3458L211.118 -48.2956L181.378 -31.1363ZM30.8703 -13.6227V-47.6959L60.0779 -30.8229L60.3913 -30.6457V3.42752L31.7698 -13.0912L30.8703 -13.6227ZM61.0728 3.42752V-30.6457L90.5938 -47.6959V-13.6227L61.0728 3.42752ZM90.5938 21.6499V55.723L61.0728 38.6864V4.61326L90.5938 21.6499ZM0.640576 -30.6593L30.1616 -47.7095V-13.6363L0.667835 3.42752L0.640576 -30.6593ZM91.248 55.7367V21.2546L91.0844 21.1592L61.4135 4.01357L90.9345 -13.023L120.81 4.21802V38.7001L91.248 55.7367ZM151.326 -13.023L180.847 4.01357L151.353 21.0638L121.832 4.01357L151.326 -13.023ZM181.869 4.61326L211.39 21.6499V55.723L181.869 38.6864V4.61326ZM212.072 55.7367V21.2546L211.894 21.1592L182.21 4.01357L211.731 -13.023L241.565 4.21802V38.7001L212.072 55.7367ZM303.02 3.94543L332.541 -13.0912L362.062 3.94543L332.568 21.0638L307.667 6.68491L303.02 3.94543ZM332.881 -47.7095L362.743 -30.4685L377.94 -39.2321L392.605 -47.7095V-13.6363L362.77 3.61833L332.881 -13.6227V-47.7095ZM377.858 -39.9272L362.866 -31.2454L333.345 -48.2956L362.866 -65.3458L392.387 -48.2956L377.858 -39.9272ZM271.89 -48.1048V-13.6227L242.369 3.42752V-31.0546L212.508 -48.2956L230.485 -58.6675L242.029 -65.3458L242.942 -64.8143L271.89 -48.1048ZM241.565 -65.9319L212.099 -48.8544V-82.9276L241.565 -100.019V-65.9319ZM150.958 -48.1048V-13.6227L121.137 3.61833L92.1884 -13.0912L91.2753 -13.6227V-48.1048L109.607 -58.6811L121.137 -65.3458L122.05 -64.8143L150.958 -48.1048ZM120.81 -65.9319L91.2753 -48.8544V-82.9276L120.81 -100.019V-65.9319ZM90.2803 -48.2956L60.7321 -31.2454L31.211 -48.2956L51.1779 -59.7578L60.7184 -65.2095L61.0319 -65.0187L90.2803 -48.2956ZM60.3913 -65.9319L30.8703 -48.8544V-82.9276L60.3913 -99.9642V-65.9319ZM60.7321 73.3729L30.7068 56.091L0.722352 38.7546V4.27253L23.2379 -8.7298L30.5841 -12.9685L60.4458 4.27253V39.1499L60.623 39.2453L90.2803 56.3364L84.6378 59.5938L60.7321 73.3729ZM483.935 38.7001V4.6269L507.254 18.079L513.456 21.6635V55.7367L483.935 38.7001ZM484.275 4.01357L503.847 -7.2851L513.796 -13.023L543.317 4.01357L513.796 21.0638L484.275 4.01357ZM543.658 3.42752L514.151 -13.6227V-47.6959L543.672 -30.6457L543.658 3.42752ZM151.012 -48.8544L141.322 -54.456L121.491 -65.9046V-99.9778L151.012 -82.9276V-48.8544ZM513.865 -48.6636L509.217 -45.9377L483.417 -31.1363L483.253 -31.0409V3.44114L453.732 -13.5955V-48.4864L453.391 -48.6908L423.87 -65.7274L423.189 -66.1227L422.494 -65.7274L392.973 -48.6908L363.452 -65.7274L362.77 -66.1227L347.587 -57.3591L332.595 -48.6908L302.393 -66.1227L287.21 -57.3591L272.218 -48.6908L262.2 -54.4697L242.356 -65.9319V-100.646C242.356 -100.646 242.356 -100.646 242.356 -100.727C242.356 -100.809 242.356 -100.727 242.356 -100.823H242.26C242.22 -100.833 242.178 -100.833 242.138 -100.823H242.056H241.961L211.581 -83.4591L211.417 -83.3637V-48.8544L181.596 -66.1227L166.4 -57.3591L151.694 -48.8544V-83.3637L121.137 -101L90.771 -83.4591L90.5938 -83.3637V-48.8544L61.0728 -65.9319V-100.646C61.0728 -100.646 61.0728 -100.646 61.0728 -100.727C61.0728 -100.809 61.0728 -100.727 61.0728 -100.823C61.0413 -100.829 61.0089 -100.829 60.9774 -100.823C60.9375 -100.835 60.8946 -100.835 60.8547 -100.823H60.7729H60.5685L30.3115 -83.4591L30.1343 -83.3637V-48.4864L0.163551 -31.1363L0 -31.0409V39.109L0.163551 39.2044L30.3115 56.6362L60.6775 74.1634L60.8547 74.0681L90.8391 56.7316L121.491 39.0953V4.61326L151.012 21.6499V56.3364C151.006 56.3633 151.006 56.3912 151.012 56.4182C151.012 56.4182 151.012 56.4181 151.012 56.5135H151.108H151.23H151.394L181.378 39.1635L211.363 56.5135L211.54 56.609L242.083 38.9727V4.49059L261.355 15.6121L271.604 21.5272V56.2137C271.604 56.2137 271.604 56.2137 271.604 56.2955C271.597 56.3269 271.597 56.3595 271.604 56.3909H271.7H271.809C271.867 56.4034 271.927 56.4034 271.986 56.3909L301.97 39.0408L331.955 56.3909H332.118C332.197 56.3846 332.273 56.3563 332.336 56.3091C332.336 56.3091 332.336 56.241 332.336 56.2137C332.336 56.1864 332.336 56.2137 332.336 56.1319V21.6499L362.198 4.42245L362.539 4.23164L377.395 -4.35481L392.387 -13.023L421.921 4.02721L402.241 15.3804L392.387 21.0638L392.223 21.1592L392.046 21.2682V56.3364C392.046 56.3364 392.046 56.3364 392.046 56.4182C392.041 56.4497 392.041 56.482 392.046 56.5135C392.105 56.5603 392.176 56.5887 392.251 56.5953C392.309 56.6092 392.37 56.6092 392.428 56.5953L392.591 56.4999L411.931 45.8009L422.835 39.4906L423.339 39.1907L423.516 39.0953V4.61326L443.279 15.9801L453.46 21.8543L454.141 21.459L483.321 4.61326V39.0953L483.485 39.1907L484.003 39.4906L513.687 56.6362C513.746 56.6487 513.806 56.6487 513.865 56.6362C513.94 56.6323 514.012 56.6036 514.069 56.5544C514.076 56.523 514.076 56.4905 514.069 56.459C514.069 56.459 514.069 56.459 514.069 56.3773V21.6499L544.271 4.21802V-31.0546L513.865 -48.6636ZM393.041 -13.7317L393.273 -48.0094L393.723 -48.2683L422.835 -65.1414L423.175 -65.3322L423.516 -65.1414L446.836 -51.6756L451.006 -49.2769L451.402 -49.0452L452.696 -48.2956L452.492 -48.1729L452.996 -47.6823V-13.6091L424.893 2.60975L423.53 3.42752L423.121 3.67284L393.041 -13.7317Z" fill="white" fill-opacity="0.3"/>
</svg>
