<svg width="545" height="111" viewBox="0 0 545 111" fill="none" xmlns="http://www.w3.org/2000/svg">
<path d="M453.051 -116.609L423.53 -99.5725V-133.646L453.051 -150.682V-116.609ZM423.189 -168.4L452.71 -151.364L423.189 -134.245L393.668 -151.296L423.189 -168.4ZM393.3 -150.696L422.821 -133.659V-99.5861L393.3 -116.609V-150.696ZM393.3 -46.0776L422.821 -29.0274V5.04584L403.263 -6.25285L393.3 -11.9908V-46.0776ZM362.757 -168.332L392.278 -151.296L377.776 -142.914L362.784 -134.245L333.331 -151.296L362.757 -168.332ZM332.922 -150.696L362.784 -133.455L377.967 -142.232L392.646 -150.696V-116.623L362.784 -99.3817L332.922 -116.609V-150.696ZM362.103 -98.9047L332.582 -81.8681L307.681 -96.2469L303.061 -98.9047L332.582 -115.955L362.103 -98.9047ZM212.453 -46.6636L242.315 -63.9047V-98.3867L261.587 -87.2653L271.836 -81.3365V-46.6636V-11.9908L261.587 -6.06204L242.315 5.12761V-29.3545L212.453 -46.6636ZM181.556 -29.627L152.062 -46.6636L181.569 -63.7002L211.077 -46.6636L181.556 -29.627ZM211.431 -46.0776V-12.0044L181.91 5.12761V-28.9456L211.431 -46.0776ZM91.6296 -46.6636L121.491 -63.9047V-98.3867L151.012 -81.3365V-46.6636V-11.9908L121.491 5.12761V-29.3545L91.6296 -46.6636ZM90.6074 -47.2497L61.0864 -64.2999V-98.3731L90.6074 -81.3229V-47.2497ZM60.7457 -63.7139L90.2667 -46.6636L60.7457 -29.6134L31.2247 -46.6636L60.7457 -63.7139ZM61.0864 -29.0274L90.6074 -46.0776V-12.0044L61.0864 5.12761V-29.0274ZM151.694 -46.0776L181.229 -29.0274V5.04584L151.694 -11.9908V-46.0776ZM151.694 -47.2497V-81.3229L181.229 -98.3867V-64.3136L151.694 -47.2497ZM211.431 -47.2497L181.91 -64.2999V-98.3731L211.431 -81.3229V-47.2497ZM332.241 -47.2497L302.543 -64.3817L302.379 -64.4771L272.517 -47.2361V-81.3093L292.443 -92.8396L302.393 -98.5775L332.255 -81.3365L332.241 -47.2497ZM272.517 -46.0776L302.379 -28.8365L302.543 -28.932L332.241 -46.0776V-12.0044L302.379 5.23665L292.43 -0.501297L272.517 -12.0044V-46.0776ZM302.379 -29.627L272.858 -46.6636L302.379 -63.7002L331.968 -46.6636L302.379 -29.627ZM272.517 -151.091L302.379 -168.332L332.241 -151.091V-116.609L302.379 -99.368L274.112 -115.723L272.517 -116.636V-151.091ZM301.698 -98.9728L292.157 -93.5211L272.136 -81.9635L242.615 -99.0001L272.136 -116.05L301.698 -98.9728ZM242.015 -168.332L242.928 -167.814L271.877 -151.091V-116.609L242.356 -99.5725V-134.055L212.453 -151.296L230.417 -161.667L242.015 -168.332ZM212.112 -185.968L241.633 -203.019V-168.946L212.112 -151.882V-185.968ZM212.112 -150.696L236.945 -136.358L241.633 -133.632V-99.5589L215.588 -114.551L212.112 -116.555V-150.696ZM211.772 -116.023L241.633 -98.782V-64.2999L212.112 -47.2497V-81.7318L211.935 -81.8272L182.251 -98.9728L211.772 -116.023ZM211.431 -116.609L181.91 -99.5725V-133.646L211.431 -150.682V-116.609ZM151.694 -151.091L181.556 -168.332L211.09 -151.296L181.392 -134.15L181.229 -134.055V-99.5725L155.183 -114.565L151.694 -116.568V-151.091ZM180.874 -98.9728L151.353 -81.9362L121.832 -98.9728L151.353 -116.023L180.874 -98.9728ZM121.491 -203.019L151.012 -185.968V-151.895L141.336 -157.483L121.491 -168.932V-203.019ZM121.151 -168.332L122.064 -167.814L151.012 -151.091V-116.609L121.151 -99.368L92.1884 -116.091L91.2889 -116.609V-151.091L109.62 -161.681L121.151 -168.332ZM91.2889 -185.968L120.81 -203.019V-168.946L91.2889 -151.882V-185.968ZM90.9482 -116.023L120.81 -98.782V-64.2999L91.2889 -47.2497V-81.7318L91.1253 -81.8272L61.4272 -98.9728L90.9482 -116.023ZM90.6074 -116.609L61.0864 -99.5725V-133.646L90.6074 -150.682V-116.609ZM60.7457 -168.332L61.0592 -168.155L90.2667 -151.296L60.7457 -134.245L31.2247 -151.296L51.2052 -162.826L60.7457 -168.332ZM30.8839 -185.968L60.405 -203.019V-168.946L30.8839 -151.882V-185.968ZM30.8839 -150.696L60.0915 -133.891L60.405 -133.714V-99.6406L31.7835 -116.159L30.8839 -116.677V-150.696ZM0.681464 -133.659L30.2025 -150.696V-116.623L0.681464 -99.5861V-133.659ZM0.681464 -98.782L23.197 -111.784L30.5432 -116.023L60.405 -98.782V-64.2999L30.5432 -47.0589L0.681464 -64.2999V-98.782ZM30.2025 57.3686L0.681464 40.332V6.25883L30.2025 23.2954V57.3686ZM23.197 18.457L0.681464 5.45471V-29.0274L30.5432 -46.2684L60.405 -29.0274V5.45471L30.5432 22.6957L23.197 18.457ZM60.405 6.19069V40.2639L60.0915 40.4411L30.8839 57.3005V23.2273L31.7835 22.7094L60.405 6.19069ZM60.405 109.637L30.8839 92.5867V58.5135L60.405 75.6046V109.637ZM61.0592 74.7732L60.7457 74.9504L51.2052 69.4987L31.2383 57.9683L60.7457 40.9181L90.2667 57.9683L61.0592 74.7732ZM90.6074 57.3141L61.0864 40.332V6.25883L90.6074 23.2954V57.3141ZM61.4272 5.64552L91.1253 -11.4865L91.2889 -11.5955V-46.0776L120.81 -29.0274V5.45471L90.9482 22.6957L61.4272 5.64552ZM120.81 109.691L91.2889 92.6412V58.568L120.81 75.6182V109.691ZM151.012 92.6412L121.491 109.691V75.6182L141.336 64.156L151.012 58.568V92.6412ZM151.012 57.7639L122.077 74.487L121.164 75.0049L109.634 68.3538L91.3025 57.7639V23.2818L92.2021 22.7639L121.164 6.04077L151.026 23.2818L151.012 57.7639ZM151.353 22.6957L121.832 5.64552L151.353 -11.3911L180.874 5.64552L151.353 22.6957ZM181.556 75.0049L151.694 57.7639V23.2818L155.183 21.2783L181.229 6.2861V40.7682L181.392 40.8636L211.09 58.0092L181.556 75.0049ZM211.431 57.3686L181.91 40.332V6.25883L211.431 23.2954V57.3686ZM182.251 5.57738L211.935 -11.5546L212.112 -11.6637V-46.1457L241.633 -29.0955V5.38657L211.772 22.6276L182.251 5.57738ZM241.633 6.17706V40.2503L236.945 42.9761L212.112 57.3141V23.2409L215.588 21.2374L241.633 6.17706ZM241.633 109.623L212.112 92.5731V58.4998L241.633 75.5501V109.623ZM271.836 57.6957L242.887 74.4189L241.974 74.9368L230.417 68.272L212.453 57.9002L242.315 40.6591V6.17706L271.836 23.2137V57.6957ZM272.177 22.6276L242.656 5.57738L272.177 -11.4592L292.198 0.0984039L301.739 5.55011L272.177 22.6276ZM332.241 57.6957L302.379 74.9368L272.517 57.6957V23.2137L274.112 22.3005L302.379 5.94537L332.241 23.1864V57.6957ZM332.582 22.6276L303.061 5.57738L307.681 2.91968L332.582 -11.4592L362.103 5.57738L332.582 22.6276ZM362.784 74.9368L333.331 57.9683L362.852 40.9181L377.844 49.5863L392.346 57.9683L362.784 74.9368ZM392.646 57.3005L377.967 48.8367L362.784 40.0594L332.922 57.3686V23.2954L362.784 6.05438L392.646 23.2954V57.3005ZM392.987 22.6276L377.994 13.9594L362.811 5.18211L332.922 -11.9908V-46.6636V-81.3365L362.784 -98.5775L377.967 -107.355L392.959 -116.023L422.48 -98.9728L402.841 -87.5515L392.837 -81.7727L392.659 -81.6636V-46.6636V-11.5955L392.837 -11.4865L402.841 -5.70766L422.521 5.64552L392.987 22.6276ZM422.848 -98.4549V-64.3817L393.3 -47.2497V-81.3229L403.263 -87.0745L422.848 -98.4549ZM393.3 23.2818L422.821 6.24522V40.3184L393.3 57.3686V23.2818ZM423.162 75.0731L393.641 58.0365L423.162 40.9862L452.683 58.0365L423.162 75.0731ZM453.024 57.4368L423.503 40.4002V6.327L453.024 23.3636V57.4368ZM453.364 22.7639L443.415 17.0123L423.843 5.71365L443.415 -5.58501L453.364 -11.3229L456.772 -9.36032L482.885 5.71365L453.364 22.7639ZM513.442 -46.0094V-11.9362L507.241 -8.35175L483.948 5.12761V-28.9456L513.442 -46.0094ZM513.442 57.4368L483.921 40.4002V6.327L513.442 23.3636V57.4368ZM543.645 40.4002L514.124 57.4368V23.3636L543.645 6.327V40.4002ZM543.304 5.71365L513.783 22.7639L503.82 17.0123L484.262 5.71365L513.783 -11.3229L543.304 5.71365ZM483.921 -64.2318V-64.6134L483.58 -64.4226L483.24 -64.6134V-63.8365L483.403 -63.7275L483.921 -63.4277V-63.8365L484.262 -64.0273L483.921 -64.2318ZM483.921 -64.2318V-64.6134L483.58 -64.4226L483.24 -64.6134V-63.8365L483.403 -63.7275L483.921 -63.4277V-63.8365L484.262 -64.0273L483.921 -64.2318ZM483.921 -64.2318V-64.6134L483.58 -64.4226L483.24 -64.6134V-63.8365L483.403 -63.7275L483.921 -63.4277V-63.8365L484.262 -64.0273L483.921 -64.2318ZM483.921 -64.2318V-64.6134L483.58 -64.4226L483.24 -64.6134V-63.8365L483.403 -63.7275L483.921 -63.4277V-63.8365L484.262 -64.0273L483.921 -64.2318ZM483.921 -64.2318V-64.6134L483.58 -64.4226L483.24 -64.6134V-63.8365L483.403 -63.7275L483.921 -63.4277V-63.8365L484.262 -64.0273L483.921 -64.2318ZM483.921 -64.2318V-64.6134L483.58 -64.4226L483.24 -64.6134V-63.8365L483.403 -63.7275L483.921 -63.4277V-63.8365L484.262 -64.0273L483.921 -64.2318ZM483.921 -64.2318V-64.6134L483.58 -64.4226L483.24 -64.6134V-63.8365L483.403 -63.7275L483.921 -63.4277V-63.8365L484.262 -64.0273L483.921 -64.2318ZM483.921 -64.2318V-64.6134L483.58 -64.4226L483.24 -64.6134V-63.8365L483.403 -63.7275L483.921 -63.4277V-63.8365L484.262 -64.0273L483.921 -64.2318ZM514.124 -81.2684L544.326 -98.7138V-134.041L513.81 -151.609L509.163 -148.883L483.43 -134.027L483.267 -133.918V-99.4362L453.732 -116.609V-151.486L423.189 -169.123L392.987 -151.609L362.784 -169.055L347.601 -160.277L332.609 -151.609L302.406 -169.055L287.223 -160.277L272.231 -151.609L262.2 -157.402L242.369 -168.85V-203.605C242.369 -203.605 242.369 -203.605 242.369 -203.687C242.376 -203.713 242.376 -203.741 242.369 -203.768C242.339 -203.803 242.302 -203.831 242.26 -203.85H242.151C242.151 -203.85 242.151 -203.85 242.07 -203.85C241.988 -203.85 242.07 -203.85 241.974 -203.85L211.772 -186.405L211.608 -186.309V-151.882L181.556 -169.123L166.373 -160.345L151.694 -151.882V-186.364L121.151 -204L90.7301 -186.459L90.5529 -186.364V-151.882L61.0864 -168.918V-203.605C61.0864 -203.605 61.0864 -203.605 61.0864 -203.687C61.0864 -203.768 61.0864 -203.687 61.0864 -203.768C61.0614 -203.803 61.0287 -203.831 60.991 -203.85H60.8684H60.7457H60.6639C60.6639 -203.85 60.6639 -203.85 60.5821 -203.85L30.366 -186.405L30.2025 -186.309V-151.486L0.218068 -134.15L0.0545184 -134.041V-63.9047L0.218068 -63.8093L29.8617 -46.6636L0.16355 -29.518L0 -29.4226V40.7273L0.16355 40.8227L30.148 58.1591V93.0364L30.3115 93.1455L60.5821 110.577H60.6639H60.7457H60.8684C60.9061 110.558 60.9388 110.53 60.9638 110.496C60.9638 110.496 60.9638 110.496 60.9638 110.414C60.9638 110.332 60.9638 110.414 60.9638 110.318V75.6046L90.6074 58.5544V93.0364L90.7846 93.1455L121.151 110.673L151.694 93.0364V58.5544L166.373 67.0318L181.556 75.7954L211.431 58.5544V93.0364L211.595 93.1455L241.797 110.577H241.892H241.974C241.974 110.577 242.042 110.577 242.083 110.577C242.125 110.558 242.162 110.53 242.192 110.496C242.199 110.469 242.199 110.441 242.192 110.414C242.192 110.414 242.192 110.414 242.192 110.318V75.6046L262.023 64.1424L272.054 58.3636L287.046 67.0318L302.229 75.7954L332.432 58.3636L347.424 67.0318L362.607 75.7954L392.809 58.3636L423.012 75.7954L453.555 58.1591V23.2818L472.35 12.5556L483.253 6.24522V40.7273L483.417 40.8227L509.149 55.6786L513.797 58.4044L544.34 40.7682V5.45471L543.658 5.05946L514.478 -11.7863L514.137 -11.9771L514.124 -81.2684ZM514.124 -150.628L543.645 -133.591V-99.518L514.151 -116.609L514.124 -150.628ZM543.304 -98.8365L513.783 -81.7999L484.262 -98.8365L503.82 -110.135L513.783 -115.887L543.304 -98.8365ZM483.948 -133.659L513.469 -150.696V-116.623L483.948 -99.5725V-133.659ZM443.442 -110.271L453.392 -116.023L482.913 -98.9728L453.392 -81.9362L423.871 -98.9728L443.442 -110.271ZM453.392 -12.1407L453.228 -12.0453L453.051 -11.9362L443.21 -6.26646L423.53 5.12761V-29.3545L423.366 -29.4499L393.668 -46.6636L423.366 -63.7957L423.53 -63.9047V-98.3867L443.21 -87.0199L453.392 -81.1457L453.623 -81.282L454.073 -81.5409L483.253 -98.3867L483.594 -98.5775L483.935 -98.3867L507.254 -84.921L511.425 -82.5223L511.82 -82.2906L512.311 -81.9907L513.115 -81.5409L513.456 -81.3365V-46.8544L485.352 -30.6356L483.989 -29.8179L483.58 -29.5725H483.471L483.308 -29.4771V5.12761L453.392 -12.1407ZM483.948 -63.4549V-63.8638L484.289 -64.0546L483.948 -64.259V-64.6407L483.608 -64.4498L483.267 -64.6407V-63.8638L483.43 -63.7547L483.948 -63.4549ZM483.948 -64.259V-64.6407L483.608 -64.4498L483.267 -64.6407V-63.8638L483.43 -63.7547L483.948 -63.4549V-63.8638L484.289 -64.0546L483.948 -64.259ZM483.948 -64.259V-64.6407L483.608 -64.4498L483.267 -64.6407V-63.8638L483.43 -63.7547L483.948 -63.4549V-63.8638L484.289 -64.0546L483.948 -64.259ZM483.948 -64.259V-64.6407L483.608 -64.4498L483.267 -64.6407V-63.8638L483.43 -63.7547L483.948 -63.4549V-63.8638L484.289 -64.0546L483.948 -64.259ZM483.948 -64.259V-64.6407L483.608 -64.4498L483.267 -64.6407V-63.8638L483.43 -63.7547L483.948 -63.4549V-63.8638L484.289 -64.0546L483.948 -64.259ZM483.948 -64.259V-64.6407L483.608 -64.4498L483.267 -64.6407V-63.8638L483.43 -63.7547L483.948 -63.4549V-63.8638L484.289 -64.0546L483.948 -64.259ZM483.948 -64.259V-64.6407L483.608 -64.4498L483.267 -64.6407V-63.8638L483.43 -63.7547L483.948 -63.4549V-63.8638L484.289 -64.0546L483.948 -64.259ZM483.948 -64.259V-64.6407L483.608 -64.4498L483.267 -64.6407V-63.8638L483.43 -63.7547L483.948 -63.4549V-63.8638L484.289 -64.0546L483.948 -64.259Z" fill="white" fill-opacity="0.3"/>
</svg>
