<svg width="22" height="22" viewBox="0 0 22 22" fill="none" xmlns="http://www.w3.org/2000/svg">
<path d="M10.8504 5.75917C7.94979 5.75917 5.61015 8.09932 5.61015 11.0006C5.61015 13.9018 7.94979 16.242 10.8504 16.242C13.751 16.242 16.0906 13.9018 16.0906 11.0006C16.0906 8.09932 13.751 5.75917 10.8504 5.75917ZM10.8504 14.4082C8.97594 14.4082 7.44355 12.88 7.44355 11.0006C7.44355 9.12114 8.97138 7.59297 10.8504 7.59297C12.7294 7.59297 14.2572 9.12114 14.2572 11.0006C14.2572 12.88 12.7248 14.4082 10.8504 14.4082ZM17.5272 5.54477C17.5272 6.22446 16.9799 6.76731 16.305 6.76731C15.6254 6.76731 15.0827 6.2199 15.0827 5.54477C15.0827 4.86964 15.63 4.32223 16.305 4.32223C16.9799 4.32223 17.5272 4.86964 17.5272 5.54477ZM20.9979 6.78555C20.9204 5.1479 20.5464 3.69728 19.3469 2.50211C18.152 1.30695 16.7017 0.932888 15.0645 0.850777C13.377 0.754982 8.3192 0.754982 6.63175 0.850777C4.99902 0.928326 3.54872 1.30239 2.34926 2.49755C1.1498 3.69272 0.780388 5.14334 0.698296 6.78099C0.602521 8.46882 0.602521 13.5277 0.698296 15.2156C0.775827 16.8532 1.1498 18.3039 2.34926 19.499C3.54872 20.6942 4.99446 21.0682 6.63175 21.1504C8.3192 21.2462 13.377 21.2462 15.0645 21.1504C16.7017 21.0728 18.152 20.6987 19.3469 19.499C20.5418 18.3039 20.9158 16.8532 20.9979 15.2156C21.0937 13.5277 21.0937 8.47338 20.9979 6.78555ZM18.8179 17.0266C18.4622 17.9207 17.7735 18.6095 16.875 18.9699C15.5296 19.5036 12.3372 19.3804 10.8504 19.3804C9.3636 19.3804 6.16656 19.499 4.82572 18.9699C3.93182 18.614 3.24316 17.9252 2.88286 17.0266C2.34926 15.6809 2.4724 12.4877 2.4724 11.0006C2.4724 9.51345 2.35382 6.3157 2.88286 4.97456C3.2386 4.08046 3.92726 3.39165 4.82572 3.03127C6.17112 2.49755 9.3636 2.62072 10.8504 2.62072C12.3372 2.62072 15.5342 2.50211 16.875 3.03127C17.7689 3.38708 18.4576 4.0759 18.8179 4.97456C19.3515 6.32026 19.2284 9.51345 19.2284 11.0006C19.2284 12.4877 19.3515 15.6854 18.8179 17.0266Z" fill="white"/>
</svg>
