<svg width="606" height="105" viewBox="0 0 606 105" fill="none" xmlns="http://www.w3.org/2000/svg">
<path opacity="0.6" d="M453.672 88.1425L424.151 105.179V71.1059L453.672 54.0693V88.1425ZM423.81 36.3513L453.331 53.3878L423.81 70.5062L394.289 53.456L423.81 36.3513ZM393.921 54.0557L423.442 71.0923V105.165L393.921 88.1425V54.0557ZM393.921 158.674L423.442 175.724V209.797L403.884 198.499L393.921 192.761V158.674ZM363.378 36.4194L392.899 53.456L378.397 61.838L363.405 70.5062L333.952 53.456L363.378 36.4194ZM333.544 54.0557L363.405 71.2967L378.588 62.5195L393.267 54.0557V88.1289L363.405 105.37L333.544 88.1425V54.0557ZM362.724 105.847L333.203 122.884L308.302 108.505L303.682 105.847L333.203 88.7967L362.724 105.847ZM213.074 158.088L242.936 140.847V106.365L262.208 117.486L272.457 123.415V158.088V192.761L262.208 198.69L242.936 209.879V175.397L213.074 158.088ZM182.177 175.125L152.683 158.088L182.19 141.051L211.698 158.088L182.177 175.125ZM212.052 158.674V192.747L182.531 209.879V175.806L212.052 158.674ZM92.2508 158.088L122.113 140.847V106.365L151.634 123.415V158.088V192.761L122.113 209.879V175.397L92.2508 158.088ZM91.2286 157.502L61.7076 140.452V106.378L91.2286 123.429V157.502ZM61.3669 141.038L90.8879 158.088L61.3669 175.138L31.8459 158.088L61.3669 141.038ZM61.7076 175.724L91.2286 158.674V192.747L61.7076 209.879V175.724ZM152.315 158.674L181.85 175.724V209.797L152.315 192.761V158.674ZM152.315 157.502V123.429L181.85 106.365V140.438L152.315 157.502ZM212.052 157.502L182.531 140.452V106.378L212.052 123.429V157.502ZM332.862 157.502L303.164 140.37L303 140.274L273.139 157.516V123.442L293.065 111.912L303.014 106.174L332.876 123.415L332.862 157.502ZM273.139 158.674L303 175.915L303.164 175.82L332.862 158.674V192.747L303 209.988L293.051 204.25L273.139 192.747V158.674ZM303 175.125L273.479 158.088L303 141.051L332.589 158.088L303 175.125ZM273.139 53.6604L303 36.4194L332.862 53.6604V88.1425L303 105.384L274.733 89.0284L273.139 88.1152V53.6604ZM302.319 105.779L292.778 111.23L272.757 122.788L243.236 105.752L272.757 88.7013L302.319 105.779ZM242.636 36.4194L243.549 36.9373L272.498 53.6604V88.1425L242.977 105.179V70.697L213.074 53.456L231.038 43.0841L242.636 36.4194ZM212.734 18.7831L242.255 1.73289V35.8061L212.734 52.8699V18.7831ZM212.734 54.0557L237.566 68.3937L242.255 71.1195V105.193L216.209 90.2005L212.734 88.197V54.0557ZM212.393 88.7286L242.255 105.97V140.452L212.734 157.502V123.02L212.556 122.924L182.872 105.779L212.393 88.7286ZM212.052 88.1425L182.531 105.179V71.1059L212.052 54.0693V88.1425ZM152.315 53.6604L182.177 36.4194L211.711 53.456L182.013 70.6016L181.85 70.697V105.179L155.804 90.1869L152.315 88.1834V53.6604ZM181.495 105.779L151.974 122.815L122.453 105.779L151.974 88.7286L181.495 105.779ZM122.113 1.73289L151.634 18.7831V52.8563L141.957 47.2683L122.113 35.8197V1.73289ZM121.772 36.4194L122.685 36.9373L151.634 53.6604V88.1425L121.772 105.384L92.8096 88.6604L91.9101 88.1425V53.6604L110.241 43.0705L121.772 36.4194ZM91.9101 18.7831L121.431 1.73289V35.8061L91.9101 52.8699V18.7831ZM91.5694 88.7286L121.431 105.97V140.452L91.9101 157.502V123.02L91.7465 122.924L62.0483 105.779L91.5694 88.7286ZM91.2286 88.1425L61.7076 105.179V71.1059L91.2286 54.0693V88.1425ZM61.3669 36.4194L61.6804 36.5966L90.8879 53.456L61.3669 70.5062L31.8459 53.456L51.8264 41.9256L61.3669 36.4194ZM31.5051 18.7831L61.0261 1.73289V35.8061L31.5051 52.8699V18.7831ZM31.5051 54.0557L60.7127 70.8606L61.0261 71.0378V105.111L32.4047 88.5923L31.5051 88.0743V54.0557ZM1.30266 71.0923L30.8237 54.0557V88.1289L1.30266 105.165V71.0923ZM1.30266 105.97L23.8182 92.9673L31.1644 88.7286L61.0261 105.97V140.452L31.1644 157.693L1.30266 140.452V105.97ZM30.8237 262.12L1.30266 245.084V211.01L30.8237 228.047V262.12ZM23.8182 223.209L1.30266 210.206V175.724L31.1644 158.483L61.0261 175.724V210.206L31.1644 227.447L23.8182 223.209ZM61.0261 210.942V245.015L60.7127 245.193L31.5051 262.052V227.979L32.4047 227.461L61.0261 210.942ZM61.0261 314.388L31.5051 297.338V263.265L61.0261 280.356V314.388ZM61.6804 279.525L61.3669 279.702L51.8264 274.25L31.8595 262.72L61.3669 245.67L90.8879 262.72L61.6804 279.525ZM91.2286 262.066L61.7076 245.084V211.01L91.2286 228.047V262.066ZM62.0483 210.397L91.7465 193.265L91.9101 193.156V158.674L121.431 175.724V210.206L91.5694 227.447L62.0483 210.397ZM121.431 314.443L91.9101 297.393V263.32L121.431 280.37V314.443ZM151.634 297.393L122.113 314.443V280.37L141.957 268.908L151.634 263.32V297.393ZM151.634 262.515L122.699 279.239L121.785 279.757L110.255 273.105L91.9237 262.515V228.033L92.8232 227.515L121.785 210.792L151.647 228.033L151.634 262.515ZM151.974 227.447L122.453 210.397L151.974 193.361L181.495 210.397L151.974 227.447ZM182.177 279.757L152.315 262.515V228.033L155.804 226.03L181.85 211.038V245.52L182.013 245.615L211.711 262.761L182.177 279.757ZM212.052 262.12L182.531 245.084V211.01L212.052 228.047V262.12ZM182.872 210.329L212.556 193.197L212.734 193.088V158.606L242.255 175.656V210.138L212.393 227.379L182.872 210.329ZM242.255 210.929V245.002L237.566 247.728L212.734 262.066V227.992L216.209 225.989L242.255 210.929ZM242.255 314.375L212.734 297.325V263.251L242.255 280.302V314.375ZM272.457 262.447L243.509 279.17L242.595 279.688L231.038 273.024L213.074 262.652L242.936 245.411V210.929L272.457 227.965V262.447ZM272.798 227.379L243.277 210.329L272.798 193.292L292.819 204.85L302.36 210.302L272.798 227.379ZM332.862 262.447L303 279.688L273.139 262.447V227.965L274.733 227.052L303 210.697L332.862 227.938V262.447ZM333.203 227.379L303.682 210.329L308.302 207.671L333.203 193.292L362.724 210.329L333.203 227.379ZM363.405 279.688L333.952 262.72L363.473 245.67L378.466 254.338L392.967 262.72L363.405 279.688ZM393.267 262.052L378.588 253.588L363.405 244.811L333.544 262.12V228.047L363.405 210.806L393.267 228.047V262.052ZM393.608 227.379L378.616 218.711L363.433 209.934L333.544 192.761V158.088V123.415L363.405 106.174L378.588 97.3968L393.581 88.7286L423.102 105.779L403.462 117.2L393.458 122.979L393.281 123.088V158.088V193.156L393.458 193.265L403.462 199.044L423.142 210.397L393.608 227.379ZM423.469 106.297V140.37L393.921 157.502V123.429L403.884 117.677L423.469 106.297ZM393.921 228.033L423.442 210.997V245.07L393.921 262.12V228.033ZM423.783 279.825L394.262 262.788L423.783 245.738L453.304 262.788L423.783 279.825ZM453.645 262.188L424.124 245.152V211.079L453.645 228.115V262.188ZM453.985 227.515L444.036 221.764L424.464 210.465L444.036 199.167L453.985 193.429L457.393 195.391L483.507 210.465L453.985 227.515ZM514.063 158.742V192.815L507.862 196.4L484.57 209.879V175.806L514.063 158.742ZM514.063 262.188L484.542 245.152V211.079L514.063 228.115V262.188ZM544.266 245.152L514.745 262.188V228.115L544.266 211.079V245.152ZM543.925 210.465L514.404 227.515L504.441 221.764L484.883 210.465L514.404 193.429L543.925 210.465ZM484.542 140.52V140.138L484.202 140.329L483.861 140.138V140.915L484.024 141.024L484.542 141.324V140.915L484.883 140.724L484.542 140.52ZM484.542 140.52V140.138L484.202 140.329L483.861 140.138V140.915L484.024 141.024L484.542 141.324V140.915L484.883 140.724L484.542 140.52ZM484.542 140.52V140.138L484.202 140.329L483.861 140.138V140.915L484.024 141.024L484.542 141.324V140.915L484.883 140.724L484.542 140.52ZM484.542 140.52V140.138L484.202 140.329L483.861 140.138V140.915L484.024 141.024L484.542 141.324V140.915L484.883 140.724L484.542 140.52ZM484.542 140.52V140.138L484.202 140.329L483.861 140.138V140.915L484.024 141.024L484.542 141.324V140.915L484.883 140.724L484.542 140.52ZM484.542 140.52V140.138L484.202 140.329L483.861 140.138V140.915L484.024 141.024L484.542 141.324V140.915L484.883 140.724L484.542 140.52ZM484.542 140.52V140.138L484.202 140.329L483.861 140.138V140.915L484.024 141.024L484.542 141.324V140.915L484.883 140.724L484.542 140.52ZM484.542 140.52V140.138L484.202 140.329L483.861 140.138V140.915L484.024 141.024L484.542 141.324V140.915L484.883 140.724L484.542 140.52ZM514.745 123.483L544.947 106.038V70.7107L514.431 53.1425L509.784 55.8684L484.052 70.7243L483.888 70.8333V105.315L454.353 88.1425V53.2652L423.81 35.6289L393.608 53.1425L363.405 35.697L348.222 44.4743L333.23 53.1425L303.028 35.697L287.845 44.4743L272.852 53.1425L262.821 47.3501L242.991 35.9015V1.14683C242.991 1.14683 242.991 1.14684 242.991 1.06506C242.997 1.03817 242.997 1.01017 242.991 0.983282C242.96 0.94867 242.923 0.920805 242.882 0.901505H242.773C242.773 0.901505 242.773 0.901505 242.691 0.901505C242.609 0.901505 242.691 0.901505 242.595 0.901505L212.393 18.347L212.229 18.4424V52.8699L182.177 35.6289L166.994 44.4062L152.315 52.8699V18.3879L121.772 0.751587L91.3513 18.2925L91.1741 18.3879V52.8699L61.7076 35.8333V1.14683C61.7076 1.14683 61.7076 1.14684 61.7076 1.06506C61.7076 0.983284 61.7076 1.06506 61.7076 0.983282C61.6826 0.948966 61.6499 0.920961 61.6122 0.901505H61.4895H61.3669H61.2851C61.2851 0.901505 61.2851 0.901505 61.2033 0.901505L30.9872 18.347L30.8237 18.4424V53.2652L0.839261 70.6016L0.675711 70.7107V140.847L0.839261 140.942L30.4829 158.088L0.784743 175.234L0.621193 175.329V245.479L0.784743 245.574L30.7692 262.911V297.788L30.9327 297.897L61.2033 315.329H61.2851H61.3669H61.4895C61.5273 315.309 61.5599 315.281 61.5849 315.247C61.5849 315.247 61.5849 315.247 61.5849 315.165C61.5849 315.084 61.5849 315.165 61.5849 315.07V280.356L91.2286 263.306V297.788L91.4058 297.897L121.772 315.424L152.315 297.788V263.306L166.994 271.783L182.177 280.547L212.052 263.306V297.788L212.216 297.897L242.418 315.329H242.514H242.595C242.595 315.329 242.664 315.329 242.704 315.329C242.746 315.31 242.783 315.282 242.813 315.247C242.82 315.22 242.82 315.192 242.813 315.165C242.813 315.165 242.813 315.165 242.813 315.07V280.356L262.644 268.894L272.675 263.115L287.667 271.783L302.85 280.547L333.053 263.115L348.045 271.783L363.228 280.547L393.431 263.115L423.633 280.547L454.176 262.911V228.033L472.971 217.307L483.874 210.997V245.479L484.038 245.574L509.77 260.43L514.418 263.156L544.961 245.52V210.206L544.279 209.811L515.099 192.965L514.758 192.774L514.745 123.483ZM514.745 54.1238L544.266 71.1604V105.234L514.772 88.1425L514.745 54.1238ZM543.925 105.915L514.404 122.952L484.883 105.915L504.441 94.6164L514.404 88.8648L543.925 105.915ZM484.57 71.0923L514.091 54.0557V88.1289L484.57 105.179V71.0923ZM444.063 94.4801L454.013 88.7286L483.534 105.779L454.013 122.815L424.492 105.779L444.063 94.4801ZM454.013 192.611L453.849 192.706L453.672 192.815L443.832 198.485L424.151 209.879V175.397L423.987 175.302L394.289 158.088L423.987 140.956L424.151 140.847V106.365L443.832 117.732L454.013 123.606L454.244 123.47L454.694 123.211L483.874 106.365L484.215 106.174L484.556 106.365L507.876 119.831L512.046 122.229L512.441 122.461L512.932 122.761L513.736 123.211L514.077 123.415V157.897L485.973 174.116L484.61 174.934L484.202 175.179H484.093L483.929 175.274V209.879L454.013 192.611ZM484.57 141.297V140.888L484.91 140.697L484.57 140.493V140.111L484.229 140.302L483.888 140.111V140.888L484.052 140.997L484.57 141.297ZM484.57 140.493V140.111L484.229 140.302L483.888 140.111V140.888L484.052 140.997L484.57 141.297V140.888L484.91 140.697L484.57 140.493ZM484.57 140.493V140.111L484.229 140.302L483.888 140.111V140.888L484.052 140.997L484.57 141.297V140.888L484.91 140.697L484.57 140.493ZM484.57 140.493V140.111L484.229 140.302L483.888 140.111V140.888L484.052 140.997L484.57 141.297V140.888L484.91 140.697L484.57 140.493ZM484.57 140.493V140.111L484.229 140.302L483.888 140.111V140.888L484.052 140.997L484.57 141.297V140.888L484.91 140.697L484.57 140.493ZM484.57 140.493V140.111L484.229 140.302L483.888 140.111V140.888L484.052 140.997L484.57 141.297V140.888L484.91 140.697L484.57 140.493ZM484.57 140.493V140.111L484.229 140.302L483.888 140.111V140.888L484.052 140.997L484.57 141.297V140.888L484.91 140.697L484.57 140.493ZM484.57 140.493V140.111L484.229 140.302L483.888 140.111V140.888L484.052 140.997L484.57 141.297V140.888L484.91 140.697L484.57 140.493Z" fill="white"/>
<path d="M514.431 192.571L504.468 186.819L484.91 175.521L504.468 164.222L514.431 158.484L543.952 175.521L517.825 190.608L514.431 192.571ZM483.874 210.207L454.103 226.871V193.066L464.302 187.433L483.874 176.12V210.207ZM363.391 210.003L333.543 227.244V193.171L353.456 181.681L363.405 175.93L393.267 193.171V227.244L363.582 210.112L363.391 210.003ZM544.96 140.848L574.481 123.798V157.871L544.96 174.921V140.848ZM333.189 192.639L303.668 175.589L333.189 158.552L362.71 175.589L353.169 181.041L333.189 192.639ZM212.72 227.312V193.239L242.241 176.202V210.275L212.72 227.312ZM393.253 157.953L363.405 175.126L335.138 158.77L333.543 157.844V123.362L363.405 106.121L393.267 123.362L393.253 157.953ZM242.922 140.916L272.443 123.866V157.939L242.922 174.989V140.916ZM273.125 157.953V123.879L297.971 138.231L302.646 140.957V175.03L276.6 160.038L273.125 157.953ZM242.418 140.371L242.254 140.466V174.948L216.209 159.956L212.733 157.939V123.457L242.636 106.161L272.157 123.212L242.418 140.371ZM91.9097 157.885V123.811L121.117 140.684L121.431 140.862V174.935L92.8092 158.416L91.9097 157.885ZM122.112 174.935V140.862L151.633 123.811V157.885L122.112 174.935ZM151.633 193.157V227.23L122.112 210.194V176.12L151.633 193.157ZM61.6799 140.848L91.201 123.798V157.871L61.7072 174.935L61.6799 140.848ZM152.287 227.244V192.762L152.124 192.666L122.453 175.521L151.974 158.484L181.849 175.725V210.207L152.287 227.244ZM212.365 158.484L241.886 175.521L212.392 192.571L182.871 175.521L212.365 158.484ZM242.908 176.12L272.429 193.157V227.23L242.908 210.194V176.12ZM273.111 227.244V192.762L272.934 192.666L243.249 175.521L272.77 158.484L302.605 175.725V210.207L273.111 227.244ZM364.059 175.453L393.58 158.416L423.101 175.453L393.607 192.571L368.707 178.192L364.059 175.453ZM393.921 123.798L423.783 141.039L438.979 132.275L453.644 123.798V157.871L423.81 175.126L393.921 157.885V123.798ZM438.897 131.58L423.905 140.262L394.384 123.212L423.905 106.161L453.426 123.212L438.897 131.58ZM332.93 123.402V157.885L303.409 174.935V140.453L273.547 123.212L291.524 112.84L303.068 106.161L303.981 106.693L332.93 123.402ZM302.605 105.575L273.138 122.653V88.5796L302.605 71.4885V105.575ZM211.997 123.402V157.885L182.176 175.126L153.228 158.416L152.315 157.885V123.402L170.646 112.826L182.176 106.161L183.09 106.693L211.997 123.402ZM181.849 105.575L152.315 122.653V88.5796L181.849 71.4885V105.575ZM151.32 123.212L121.771 140.262L92.2504 123.212L112.217 111.749L121.758 106.298L122.071 106.489L151.32 123.212ZM121.431 105.575L91.9097 122.653V88.5796L121.431 71.543V105.575ZM121.771 244.88L91.7461 227.598L61.7617 210.262V175.78L84.2773 162.777L91.6235 158.539L121.485 175.78V210.657L121.662 210.752L151.32 227.844L145.677 231.101L121.771 244.88ZM544.974 210.207V176.134L568.294 189.586L574.495 193.171V227.244L544.974 210.207ZM545.315 175.521L564.886 164.222L574.836 158.484L604.357 175.521L574.836 192.571L545.315 175.521ZM604.698 174.935L575.19 157.885V123.811L604.711 140.862L604.698 174.935ZM212.052 122.653L202.361 117.051L182.531 105.603V71.5294L212.052 88.5796V122.653ZM574.904 122.844L570.256 125.569L544.456 140.371L544.293 140.466V174.948L514.772 157.912V123.021L514.431 122.816L484.91 105.78L484.228 105.385L483.533 105.78L454.012 122.816L424.491 105.78L423.81 105.385L408.627 114.148L393.635 122.816L363.432 105.385L348.249 114.148L333.257 122.816L323.239 117.038L303.395 105.575V70.8616C303.395 70.8616 303.395 70.8616 303.395 70.7798C303.395 70.698 303.395 70.7798 303.395 70.6844H303.3C303.26 70.674 303.217 70.674 303.177 70.6844H303.095H303L272.62 88.0481L272.457 88.1435V122.653L242.636 105.385L227.439 114.148L212.733 122.653V88.1435L182.176 70.5072L151.81 88.0481L151.633 88.1435V122.653L122.112 105.575V70.8616C122.112 70.8616 122.112 70.8616 122.112 70.7798C122.112 70.698 122.112 70.7798 122.112 70.6844C122.081 70.6782 122.048 70.6782 122.017 70.6844C121.977 70.6718 121.934 70.6718 121.894 70.6844H121.812H121.608L91.3509 88.0481L91.1737 88.1435V123.021L61.2029 140.371L61.0394 140.466V210.616L61.2029 210.712L91.3509 228.143L121.717 245.671L121.894 245.575L151.878 228.239L182.531 210.603V176.12L212.052 193.157V227.844C212.046 227.87 212.046 227.898 212.052 227.925C212.052 227.925 212.052 227.925 212.052 228.021H212.147H212.27H212.433L242.418 210.671L272.402 228.021L272.579 228.116L303.123 210.48V175.998L322.394 187.119L332.644 193.034V227.721C332.644 227.721 332.644 227.721 332.644 227.803C332.637 227.834 332.637 227.867 332.644 227.898H332.739H332.848C332.906 227.911 332.967 227.911 333.025 227.898L363.01 210.548L392.994 227.898H393.158C393.237 227.892 393.312 227.863 393.376 227.816C393.376 227.816 393.376 227.748 393.376 227.721C393.376 227.694 393.376 227.721 393.376 227.639V193.157L423.237 175.93L423.578 175.739L438.434 167.152L453.426 158.484L482.961 175.534L463.28 186.888L453.426 192.571L453.263 192.666L453.086 192.775V227.844C453.086 227.844 453.086 227.844 453.086 227.925C453.08 227.957 453.08 227.989 453.086 228.021C453.144 228.068 453.215 228.096 453.29 228.103C453.348 228.116 453.409 228.116 453.467 228.103L453.631 228.007L472.971 217.308L483.874 210.998L484.378 210.698L484.555 210.603V176.12L504.318 187.487L514.499 193.362L515.18 192.966L544.361 176.12V210.603L544.524 210.698L545.042 210.998L574.727 228.143C574.785 228.156 574.846 228.156 574.904 228.143C574.979 228.14 575.051 228.111 575.108 228.062C575.115 228.03 575.115 227.998 575.108 227.966C575.108 227.966 575.108 227.966 575.108 227.884V193.157L605.311 175.725V140.453L574.904 122.844ZM454.08 157.775L454.312 123.498L454.762 123.239L483.874 106.366L484.215 106.175L484.555 106.366L507.875 119.832L512.046 122.23L512.441 122.462L513.736 123.212L513.531 123.334L514.036 123.825V157.898L485.932 174.117L484.569 174.935L484.16 175.18L454.08 157.775Z" fill="white"/>
</svg>
