<svg width="137" height="110" viewBox="0 0 137 110" fill="none" xmlns="http://www.w3.org/2000/svg">
<g opacity="0.6">
<path d="M79.4938 7.82355H102.66L114.183 27.9876L103.163 47.8989H79.4938L68.2209 27.8626L79.4938 7.82355Z" stroke="white" stroke-width="0.822882" stroke-miterlimit="10"/>
<path d="M79.4938 62.5221H102.66L114.183 82.6862L103.163 102.597H79.4938L68.2209 82.5611L79.4938 62.5221Z" stroke="white" stroke-width="0.822882" stroke-miterlimit="10"/>
<path d="M32.3314 35.1167H55.5L67.0231 55.2781L56.0003 75.192H32.3314L21.0611 55.153L32.3314 35.1167Z" stroke="white" stroke-width="0.822882" stroke-miterlimit="10"/>
<path d="M21.0609 55.1528H0" stroke="white" stroke-width="0.822882" stroke-miterlimit="10"/>
<path d="M49.06 17.4038C53.5898 17.4038 57.2619 13.7317 57.2619 9.20189C57.2619 4.67211 53.5898 1 49.06 1C44.5302 1 40.8581 4.67211 40.8581 9.20189C40.8581 13.7317 44.5302 17.4038 49.06 17.4038Z" stroke="white" stroke-width="0.822882" stroke-miterlimit="10"/>
<path d="M128.076 63.3546C132.606 63.3546 136.278 59.6825 136.278 55.1527C136.278 50.6229 132.606 46.9508 128.076 46.9508C123.547 46.9508 119.875 50.6229 119.875 55.1527C119.875 59.6825 123.547 63.3546 128.076 63.3546Z" stroke="white" stroke-width="0.822882" stroke-miterlimit="10"/>
<path d="M49.06 109.306C53.5898 109.306 57.2619 105.634 57.2619 101.105C57.2619 96.5748 53.5898 92.9026 49.06 92.9026C44.5302 92.9026 40.8581 96.5748 40.8581 101.105C40.8581 105.634 44.5302 109.306 49.06 109.306Z" stroke="white" stroke-width="0.822882" stroke-miterlimit="10"/>
</g>
</svg>
