<svg width="17" height="16" viewBox="0 0 17 16" fill="none" xmlns="http://www.w3.org/2000/svg">
<path fill-rule="evenodd" clip-rule="evenodd" d="M1.16602 8C2.31935 5.07333 5.16602 3 8.49935 3C11.8327 3 14.6793 5.07333 15.8327 8C14.6793 10.9267 11.8327 13 8.49935 13C5.16602 13 2.31935 10.9267 1.16602 8ZM14.3793 8C13.2793 5.75333 11.0259 4.33333 8.49926 4.33333C5.9726 4.33333 3.71927 5.75333 2.61927 8C3.71927 10.2467 5.9726 11.6667 8.49926 11.6667C11.0259 11.6667 13.2793 10.2467 14.3793 8ZM8.49935 6.33333C9.41935 6.33333 10.166 7.08 10.166 8C10.166 8.92 9.41935 9.66667 8.49935 9.66667C7.57935 9.66667 6.83268 8.92 6.83268 8C6.83268 7.08 7.57935 6.33333 8.49935 6.33333ZM5.49935 8C5.49935 6.34667 6.84602 5 8.49935 5C10.1527 5 11.4993 6.34667 11.4993 8C11.4993 9.65333 10.1527 11 8.49935 11C6.84602 11 5.49935 9.65333 5.49935 8Z" fill="#2F80ED"/>
</svg>
